<?xml version="1.0" encoding="UTF-8"?>
<svg width="49.155mm" height="49.075mm" version="1.1" viewBox="0 0 49.155 49.075" xmlns="http://www.w3.org/2000/svg">
<g transform="translate(238.96 -121.6)">
<path d="m-234.49 170.13c-1.5428-0.69754-2.7834-1.9007-3.6616-3.5511l-0.70398-1.3229-0.0748-18.49c-0.0828-20.465-0.10171-20.2 1.5984-22.41 0.47169-0.61325 1.5125-1.4844 2.3128-1.9358l1.4552-0.82081h38.365l1.0891 0.58267c1.6736 0.89535 2.5672 1.7568 3.421 3.298l0.78156 1.411 0.0731 18.628c0.0825 21.024 0.13362 20.396-1.8438 22.642-0.63506 0.72147-1.6964 1.5405-2.4525 1.8926l-1.333 0.62073-18.918-3e-3c-18.455-3e-3 -18.947-0.0164-20.108-0.54154zm24.479-7.2171c2.3928-1.1143 4.7733-3.9718 5.4318-6.5204 0.28216-1.092 0.23959-1.373-0.51385-3.3915-0.45182-1.2105-0.82215-2.4011-0.82296-2.6458-6e-3 -1.8645-1.669-4.2448-3.5704-5.1107-0.90385-0.41165-1.7921-0.48264-6.0854-0.48634-5.2913-5e-3 -6.3856 0.15283-7.83 1.1263-1.5431 1.0399-2.0918 2.1372-2.0918 4.1828 0 2.6326 0.51262 8.4352 0.83544 9.4568 0.51353 1.625 2.2323 3.1695 4.1899 3.765 0.36474 0.11095 2.5682 0.2108 4.8965 0.22188 3.9048 0.0186 4.3363-0.0278 5.5608-0.598zm8.7034-12.265c1.147-1.9969 2.0077-3.8028 2.0077-4.2125 0-0.98804-0.70732-1.6849-1.7102-1.6849-1.0258 0-1.3313 0.24196-2.8489 2.2558-1.1717 1.5548-1.1962 1.627-0.98863 2.9104 0.19638 1.2145 1.3011 4.4618 1.4622 4.2979 0.0386-0.0393 0.97368-1.6444 2.0779-3.5668zm-22.136-6.0062c1.0339-0.52168 1.0243-0.33159 0.30103-5.9765-0.60468-4.7191-0.86923-5.3578-2.2193-5.3578-0.3921 0-0.95853 0.24563-1.2588 0.54585l-0.54584 0.54584 0.5826 5.2419c0.32044 2.883 0.64903 5.5802 0.73021 5.9938l0.1476 0.75186 0.70126-0.65551c0.38569-0.36053 1.0882-0.85076 1.5612-1.0894zm17.803-5.4474c1.4684-7.6617 1.4556-7.5488 0.93968-8.3363-0.57255-0.87383-1.9529-0.90633-2.7271-0.0642-0.32828 0.35705-1.0351 2.2819-1.7659 4.8092-0.95197 3.292-1.2186 4.6362-1.2186 6.1442v1.9303l1.3146 0.56552c0.72302 0.31104 1.4562 0.73611 1.6292 0.94461 0.17304 0.2085 0.39846 0.28475 0.50093 0.16944s0.69972-2.8886 1.3272-6.1628zm-12.385 4.2362 0.98594-3e-3 -0.15724-6.813c-0.16691-7.2318-0.26773-7.7866-1.4993-8.2506-0.6766-0.25494-1.884 0.26544-2.1353 0.92028-0.0904 0.23556-0.16436 3.5893-0.16436 7.4527v7.0244l0.99219-0.164c0.5457-0.0902 1.4359-0.16531 1.9781-0.16691zm6.6022-6.9482c0.0532-7.7747 0.0243-8.5656-0.33753-9.2417-0.30211-0.56449-1.3047-0.86364-2.0751-0.61913-1.2256 0.38899-1.3391 1.1733-1.3391 9.2524v7.5538h3.7042z" fill="#000080" stroke-width=".26458"/>
</g>
</svg>
