<?xml version="1.0" encoding="UTF-8"?>
<svg enable-background="new 0 0 511.997 511.997" version="1.1" viewBox="0 0 512 512" xml:space="preserve" xmlns="http://www.w3.org/2000/svg">
<path d="m382.02 127.07c11.331-9.116 17.92-22.878 17.912-37.424v-57.655c1e-3 -17.665-14.321-31.987-31.986-31.987h-223.9c-17.665 0-31.987 14.322-31.987 31.987v57.656c-8e-3 14.546 6.581 28.308 17.912 37.424l110.03 88.443v18.792l-34.865 74.208-77.567 11.835c-9.836 1.407-16.673 10.524-15.266 20.359 0.536 3.742 2.239 7.229 4.87 9.948l56.616 58.055-13.754 82.205c-1.591 9.812 5.062 19.056 14.874 20.647 3.982 0.648 8.069-0.064 11.595-2.015l69.491-38.224 69.171 38.224c8.58 5.006 19.6 2.103 24.606-6.477 2.135-3.67 2.911-7.973 2.183-12.155l-13.754-82.205 56.616-58.056c6.917-7.133 6.749-18.52-0.384-25.445-2.671-2.591-6.085-4.294-9.772-4.862l-77.567-11.835-35.105-74.289v-18.712l110.03-88.442z" fill="#2D4961"/>
<path d="m383.94 47.98v46.06c-0.016 7.285-3.343 14.17-9.036 18.712l-86.923 69.651c-10.092 8.029-15.977 20.215-15.993 33.106l110.03-88.443c11.331-9.116 17.92-22.878 17.912-37.424v-57.655c-8.829 0-15.994 7.156-15.994 15.993z" fill="#123247"/>
<path d="m144.05 0c-17.665 0-31.987 14.322-31.987 31.987v55.976c8.836 0 15.993-7.157 15.993-15.993v-39.983c0-8.836 7.157-15.993 15.993-15.993h207.91c8.836 0 15.993-7.157 15.993-15.993h-223.9z" fill="#44637F"/>
<path d="m338.2 408.71 56.616-58.056c4.718-4.838 6.317-11.915 4.158-18.312-0.36-0.888-0.784-1.743-1.279-2.559-4.062 0.4-7.909 2.015-11.035 4.638l-45.341 46.46c-7.085 7.277-10.292 17.489-8.636 27.508l10.795 66.212c1.591 9.812-5.062 19.056-14.874 20.647-3.982 0.648-8.069-0.064-11.595-2.015l-53.657-29.428c-9.732-5.47-21.615-5.47-31.347 0l-53.258 29.588c-0.736 0.36-1.519 0.624-2.319 0.8-5.614 1.583-8.876 7.421-7.285 13.027 0.232 0.808 0.552 1.591 0.968 2.327 5.246 2.799 11.547 2.799 16.793 0l69.091-38.224 69.171 38.224c8.58 5.006 19.6 2.103 24.606-6.477 2.135-3.67 2.911-7.973 2.183-12.155l-13.755-82.205z" fill="#123247"/>
<polygon points="256 434.78 196.58 467.64 207.94 397.91 159.08 347.85 226.57 337.54 256 274.84 285.43 337.54 352.92 347.85 304.06 397.91 315.41 467.64" fill="#FFCB5B"/>
<polygon points="235.53 350.57 263.52 290.92 256 274.84 226.57 337.54 159.08 347.85 171.31 360.41" fill="#FFDB6F"/>
<polygon points="352.92 347.85 335.08 345.13 295.1 386.16 306.46 455.81 247.04 423.02 199.62 449.17 196.58 467.64 256 434.78 315.41 467.64 304.06 397.91" fill="#F7B84E"/>
<path d="m150.04 102.12c-3.79-3.031-5.997-7.621-5.997-12.475v-57.655h223.91v57.656c0 4.854-2.207 9.444-5.997 12.475l-105.96 85.164-105.96-85.165z" fill="#3689C9"/>
<g fill="#E2E5E7">
	<polygon points="327.97 129.46 327.97 47.98 295.98 47.98 295.98 155.14"/>
	<polygon points="216.02 155.14 216.02 47.98 184.03 47.98 184.03 129.46"/>
	<polygon points="240 174.41 256 187.28 271.99 174.41 271.99 47.98 240 47.98"/>
</g>
<rect x="144.02" y="31.987" width="223.91" height="15.993" fill="#4C9FD7"/>
<g fill="#F1F2F2">
	<rect x="184" y="31.987" width="31.987" height="15.993"/>
	<rect x="239.98" y="31.987" width="31.987" height="15.993"/>
	<rect x="295.96" y="31.987" width="31.987" height="15.993"/>
</g>
<path d="m240 215.91v18.392l-34.865 74.209-77.567 11.835c-9.836 1.407-16.673 10.524-15.266 20.359 0.536 3.742 2.239 7.229 4.87 9.948l2.879 3.039c0.104-8.732 6.549-16.097 15.194-17.353l61.334-9.356c10.308-1.463 19.256-7.845 23.99-17.113l31.267-61.974c2.719-5.294 4.142-11.163 4.158-17.113 0-8.213-6.661-14.874-14.874-14.874h-1.12z" fill="#44637F"/>















</svg>
