<?xml version="1.0" encoding="UTF-8"?>
<svg width="49.182mm" height="49.113mm" version="1.1" viewBox="0 0 49.182 49.113" xmlns="http://www.w3.org/2000/svg">
<g transform="translate(72.216 -77.408)">
<path d="m-67.446 126.14c-0.70458-0.25077-1.7295-0.96729-2.533-1.7708-2.3421-2.3421-2.2366-1.2872-2.2366-22.379 0-20.458-0.0511-19.82 1.7564-21.931 0.51364-0.60008 1.4894-1.4176 2.1684-1.8168l1.2346-0.72574 18.895-0.073c21-0.0811 20.349-0.12971 22.459 1.6762 0.59369 0.50818 1.4141 1.6055 1.8232 2.4385l0.74373 1.5145 0.0732 18.363c0.081 20.32 0.0991 20.067-1.5968 22.272-0.47169 0.61325-1.5125 1.4844-2.3128 1.9358l-1.4552 0.82081-18.918 0.0488c-16.712 0.0431-19.056-2.6e-4 -20.101-0.37243zm27.545-9.5436c1.0969-0.57124 1.6165-1.067 2.2879-2.1828 0.8048-1.3377 0.86309-1.5893 0.79375-3.426l-0.0748-1.9823-1.5875-0.32758c-9.6953-2.0006-10.309-2.1622-10.93-2.877-0.5909-0.67969-0.69961-0.70192-3.2055-0.65537l-2.5938 0.0482-0.69713-0.82849c-0.38342-0.45567-0.69686-1.0872-0.69653-1.4035 5.83e-4 -0.5559-0.083-0.57221-2.5136-0.49071l-2.5141 0.0843 2e-3 1.1063c2e-3 1.4256 0.68232 5.948 1.1986 7.968 0.56928 2.2273 1.6836 4.5884 2.4499 5.1912 0.61581 0.48439 1.1291 0.51491 8.6585 0.51491h8.0039zm6.2457-9.9765c0.18066-0.72761 0.40282-1.8769 0.4937-2.554 0.14391-1.0722 0.0937-1.2693-0.38887-1.5276-0.30476-0.1631-3.444-0.89444-6.976-1.6252-4.6907-0.97049-6.5713-1.2607-6.9762-1.0765-0.43888 0.19969-0.64973 0.73293-1.0129 2.5615-0.41354 2.0823-0.41845 2.3495-0.05 2.718 0.52418 0.52417 11.782 2.9417 13.391 2.8756l1.1906-0.0489zm-16.752-2.9293c0.35723-0.35723 0.41577-1.4114 0.41577-7.4877 0-5.1476-0.0864-7.1583-0.3175-7.3894-0.19468-0.19468-1.1465-0.3175-2.4606-0.3175-1.3141 0-2.2659 0.12282-2.4606 0.3175-0.23111 0.23111-0.3175 2.2418-0.3175 7.3894 0 6.0763 0.0585 7.1305 0.41577 7.4877 0.30263 0.30263 0.94552 0.41578 2.3624 0.41578 1.4168 0 2.0597-0.11315 2.3624-0.41578zm-6.5163-2.5476c0.44876-0.44876 0.44876-10.822 0-11.271-0.36386-0.36385-4.3765-0.43676-4.9241-0.0895-0.26669 0.16912-0.35063 1.4757-0.36344 5.6568-9e-3 2.9903 0.0646 5.5684 0.16397 5.7291 0.25298 0.40934 4.7109 0.38737 5.1236-0.0252zm20.955-5.7679c0-6.3979 0.02159-6.35-2.8598-6.35-2.8768 0-2.814-0.12131-2.9108 5.6295l-0.0821 4.8794 2.5957 0.53768c1.4276 0.29572 2.7445 0.55058 2.9264 0.56635 0.25452 0.0221 0.33073-1.1908 0.33073-5.263zm-7.1711-8.3673c-0.39175-0.47203-4.4828-0.51043-4.9468-0.0464-0.22789 0.22788-0.3175 1.9763-0.3175 6.1947v5.8772l0.7485-0.28253c0.55545-0.20966 1.2549-0.1851 2.712 0.0952l1.9635 0.37775 0.0712-5.926c0.0498-4.1475-0.0195-6.0352-0.23083-6.2899z" fill="#000080" stroke-width=".26458"/>
</g>
</svg>
