<?xml version="1.0" encoding="UTF-8"?>
<svg width="49.185mm" height="49.075mm" version="1.1" viewBox="0 0 49.185 49.075" xmlns="http://www.w3.org/2000/svg">
<g transform="translate(208 -133.63)">
<path d="m-203.64 182.08c-0.73486-0.34219-1.8131-1.1661-2.4029-1.8362-2.0044-2.2771-1.9526-1.6938-1.9526-21.994 0-19.921-0.0174-19.692 1.6604-21.873 0.46921-0.61 1.508-1.4785 2.3083-1.9299l1.4552-0.82081h38.365l1.0892 0.58267c1.6736 0.89535 2.5672 1.7568 3.421 3.298l0.78157 1.411 0.073 18.763c0.0821 21.087 0.15213 20.24-1.8632 22.53-0.61736 0.70136-1.6851 1.5222-2.4331 1.8705l-1.333 0.62073h-37.835zm23.887-8.5246c1.5916-0.44555 2.0472-0.99826 2.2993-2.7891l0.17224-1.2239-2.9858-0.55822c-3.2183-0.60171-4.086-1.039-4.7097-2.3733-0.31028-0.66379-0.51234-0.81302-0.92604-0.68385-1.7817 0.55626-2.242 0.46806-3.2863-0.62974-0.93176-0.97948-1.0474-1.0308-1.4396-0.63868-0.24808 0.24807-0.88185 0.43182-1.5155 0.43939l-1.0891 0.013 0.10013 2.5147c0.11299 2.8379 0.81976 4.7022 2.1486 5.6677 1.3207 0.95956 8.1694 1.1193 11.232 0.26199zm4.9065-5.6694c0.89314-0.70254 1.1319-1.85 0.5992-2.88-0.5664-1.0953-0.88277-1.2256-4.5927-1.8915-2.7257-0.48924-3.3554-0.52771-4.0344-0.24646-0.99949 0.414-1.6644 1.6231-1.4441 2.6261 0.29027 1.3216 1.1542 1.835 3.9943 2.3741 3.535 0.67097 4.6428 0.67457 5.4778 0.0178zm-11.862-2.807c0.94397-0.36224 1.2025-1.5214 1.2025-5.3919 0-4.1545-0.27477-5.1513-1.5051-5.4601-0.57243-0.14367-0.83965-0.0218-1.4504 0.6618l-0.74869 0.83792v3.8454c0 2.8764 0.0986 4.0361 0.39131 4.6021 0.50665 0.97976 1.1718 1.2649 2.1104 0.90475zm-3.8611-2.1102c0.16558-0.3634 0.30105-1.7702 0.30105-3.1261 0-2.0936-0.0827-2.5706-0.54837-3.1626-0.75837-0.96411-2.1136-0.96411-2.872 0-0.46566 0.592-0.54837 1.069-0.54837 3.1626 0 1.356 0.13627 2.7645 0.30281 3.13 0.60682 1.3318 2.7574 1.3294 3.3649-4e-3zm7.0838-1.0311c0.95697-0.4991 1.442-0.49621 4.5109 0.0269 1.3726 0.23397 2.538 0.3828 2.5896 0.33073 0.29923-0.30196 4.9021-18.3 4.9021-19.168 0-1.1874-0.51866-2.0922-1.3194-2.3016-1.3507-0.35321-3.6915 5.0936-5.4098 12.588-0.67667 2.9513-1.4359 3.9671-2.2405 2.9977-0.20556-0.24769-0.32981-2.5687-0.38595-7.2099-0.0826-6.8307-0.27084-8.4092-1.0831-9.0833-0.6156-0.5109-1.3793 0.11562-1.8389 1.5086-0.78202 2.3704-1.0238 6.4243-0.82019 13.754 0.10621 3.8237 0.22554 6.9523 0.26516 6.9523 0.0396 0 0.41309-0.17786 0.82991-0.39524z" fill="#800000" stroke-width=".26458"/>
</g>
</svg>
